<?xml version="1.0" encoding="UTF-8"?>
<svg xmlns="http://www.w3.org/2000/svg" width="1100" height="560" viewBox="0 0 1100 560">
<rect width="100%" height="100%" fill="white"/>
<text x="550" y="32" text-anchor="middle" font-family="Arial, sans-serif" font-size="20" font-weight="bold">Display state labels during degraded final validation scenarios</text>
<line x1="90" y1="80" x2="90" y2="410" stroke="black" stroke-width="1"/>
<line x1="90" y1="410" x2="990" y2="410" stroke="black" stroke-width="1"/>
<line x1="90" y1="410.0" x2="990" y2="410.0" stroke="#dddddd" stroke-width="1"/>
<text x="80" y="414.0" text-anchor="end" font-family="Arial, sans-serif" font-size="12">0</text>
<line x1="90" y1="344.0" x2="990" y2="344.0" stroke="#dddddd" stroke-width="1"/>
<text x="80" y="348.0" text-anchor="end" font-family="Arial, sans-serif" font-size="12">404</text>
<line x1="90" y1="278.0" x2="990" y2="278.0" stroke="#dddddd" stroke-width="1"/>
<text x="80" y="282.0" text-anchor="end" font-family="Arial, sans-serif" font-size="12">808</text>
<line x1="90" y1="212.0" x2="990" y2="212.0" stroke="#dddddd" stroke-width="1"/>
<text x="80" y="216.0" text-anchor="end" font-family="Arial, sans-serif" font-size="12">1212</text>
<line x1="90" y1="146.0" x2="990" y2="146.0" stroke="#dddddd" stroke-width="1"/>
<text x="80" y="150.0" text-anchor="end" font-family="Arial, sans-serif" font-size="12">1616</text>
<line x1="90" y1="80.0" x2="990" y2="80.0" stroke="#dddddd" stroke-width="1"/>
<text x="80" y="84.0" text-anchor="end" font-family="Arial, sans-serif" font-size="12">2020</text>
<text x="550" y="535" text-anchor="middle" font-family="Arial, sans-serif" font-size="14">Scenario and design</text>
<text x="22" y="270" text-anchor="middle" font-family="Arial, sans-serif" font-size="14" transform="rotate(-90 22 270)">Number of serial status labels</text>
<rect x="133.0" y="319.2" width="28" height="90.8" fill="#9ecae1" stroke="#333333" stroke-width="0.5"/>
<rect x="169.0" y="170.3" width="28" height="239.7" fill="#fdae6b" stroke="#333333" stroke-width="0.5"/>
<text x="147.0" y="314.2" text-anchor="middle" font-family="Arial, sans-serif" font-size="11">556</text>
<text x="183.0" y="165.3" text-anchor="middle" font-family="Arial, sans-serif" font-size="11">1467</text>
<text x="165.0" y="455" text-anchor="middle" font-family="Arial, sans-serif" font-size="12">Wi-Fi loss</text>
<text x="165.0" y="471" text-anchor="middle" font-family="Arial, sans-serif" font-size="12">Design A</text>
<rect x="283.0" y="80.0" width="28" height="330.0" fill="#9ecae1" stroke="#333333" stroke-width="0.5"/>
<rect x="319.0" y="407.4" width="28" height="2.6" fill="#fdae6b" stroke="#333333" stroke-width="0.5"/>
<text x="297.0" y="75.0" text-anchor="middle" font-family="Arial, sans-serif" font-size="11">2020</text>
<text x="333.0" y="402.4" text-anchor="middle" font-family="Arial, sans-serif" font-size="11">16</text>
<text x="315.0" y="455" text-anchor="middle" font-family="Arial, sans-serif" font-size="12">Wi-Fi loss</text>
<text x="315.0" y="471" text-anchor="middle" font-family="Arial, sans-serif" font-size="12">Design B</text>
<rect x="433.0" y="329.3" width="28" height="80.7" fill="#9ecae1" stroke="#333333" stroke-width="0.5"/>
<rect x="469.0" y="203.8" width="28" height="206.2" fill="#fdae6b" stroke="#333333" stroke-width="0.5"/>
<text x="447.0" y="324.3" text-anchor="middle" font-family="Arial, sans-serif" font-size="11">494</text>
<text x="483.0" y="198.8" text-anchor="middle" font-family="Arial, sans-serif" font-size="11">1262</text>
<text x="465.0" y="455" text-anchor="middle" font-family="Arial, sans-serif" font-size="12">Slow backend</text>
<text x="465.0" y="471" text-anchor="middle" font-family="Arial, sans-serif" font-size="12">Design A</text>
<rect x="583.0" y="129.0" width="28" height="281.0" fill="#9ecae1" stroke="#333333" stroke-width="0.5"/>
<rect x="619.0" y="410.0" width="28" height="0.0" fill="#fdae6b" stroke="#333333" stroke-width="0.5"/>
<text x="597.0" y="124.0" text-anchor="middle" font-family="Arial, sans-serif" font-size="11">1720</text>
<text x="633.0" y="405.0" text-anchor="middle" font-family="Arial, sans-serif" font-size="11">0</text>
<text x="615.0" y="455" text-anchor="middle" font-family="Arial, sans-serif" font-size="12">Slow backend</text>
<text x="615.0" y="471" text-anchor="middle" font-family="Arial, sans-serif" font-size="12">Design B</text>
<rect x="733.0" y="397.1" width="28" height="12.9" fill="#9ecae1" stroke="#333333" stroke-width="0.5"/>
<rect x="769.0" y="363.9" width="28" height="46.1" fill="#fdae6b" stroke="#333333" stroke-width="0.5"/>
<text x="747.0" y="392.1" text-anchor="middle" font-family="Arial, sans-serif" font-size="11">79</text>
<text x="783.0" y="358.9" text-anchor="middle" font-family="Arial, sans-serif" font-size="11">282</text>
<text x="765.0" y="455" text-anchor="middle" font-family="Arial, sans-serif" font-size="12">Backend down</text>
<text x="765.0" y="471" text-anchor="middle" font-family="Arial, sans-serif" font-size="12">Design A</text>
<rect x="883.0" y="115.9" width="28" height="294.1" fill="#9ecae1" stroke="#333333" stroke-width="0.5"/>
<rect x="919.0" y="410.0" width="28" height="0.0" fill="#fdae6b" stroke="#333333" stroke-width="0.5"/>
<text x="897.0" y="110.9" text-anchor="middle" font-family="Arial, sans-serif" font-size="11">1800</text>
<text x="933.0" y="405.0" text-anchor="middle" font-family="Arial, sans-serif" font-size="11">0</text>
<text x="915.0" y="455" text-anchor="middle" font-family="Arial, sans-serif" font-size="12">Backend down</text>
<text x="915.0" y="471" text-anchor="middle" font-family="Arial, sans-serif" font-size="12">Design B</text>
<rect x="815" y="55" width="16" height="16" fill="#9ecae1" stroke="#333333" stroke-width="0.5"/>
<text x="839" y="68" font-family="Arial, sans-serif" font-size="13">STALE labels</text>
<rect x="940" y="55" width="16" height="16" fill="#fdae6b" stroke="#333333" stroke-width="0.5"/>
<text x="964" y="68" font-family="Arial, sans-serif" font-size="13">FAIL labels</text>
</svg>